<?xml version="1.0" encoding="UTF-8"?>
<svg width="36px" height="36px" viewBox="0 0 36 36" version="1.1" xmlns="http://www.w3.org/2000/svg" xmlns:xlink="http://www.w3.org/1999/xlink">
    <title>icon-google</title>
    <g id="icon-google" stroke="none" stroke-width="1" fill="none" fill-rule="evenodd">
        <path d="M18,9 C20.4259091,9 22.4631818,9.89181818 24.0218182,11.3440909 L24.0218182,11.3440909 L21.4404545,13.9254545 C20.5077273,13.0336364 19.3213636,12.5795455 18,12.5795455 C15.6559091,12.5795455 13.6718182,14.1627273 12.9640909,16.29 L12.9640909,16.29 C12.7840909,16.83 12.6818182,17.4068182 12.6818182,18 C12.6818182,18.5931818 12.7840909,19.17 12.9640909,19.71 C13.6718182,21.8372727 15.6559091,23.4204545 18,23.4204545 C19.2109091,23.4204545 20.2418182,23.1013636 21.0477273,22.5613636 L21.0477273,22.5613636 L21.2470577,22.4198411 C22.0893228,21.7861364 22.6499026,20.8896429 22.8436364,19.845 L22.8436364,19.845 L18,19.845 L18,16.3636364 L26.4763636,16.3636364 C26.5827273,16.9527273 26.64,17.5663636 26.64,18.2045455 C26.64,20.9454545 25.6581818,23.2527273 23.9563636,24.8195455 C22.4672727,26.1940909 20.43,27 18,27 C14.4818182,27 11.4381818,24.9831818 9.95727273,22.0418182 L9.95727273,22.0418182 L9.81039062,21.7347917 C9.2921875,20.5971875 9,19.33125 9,18 C9,16.5477273 9.34772727,15.1731818 9.95727273,13.9581818 L9.95727273,13.9581818 L10.091969,13.7010769 C11.6176298,10.8999265 14.5852941,9 18,9 Z" id="Combined-Shape" fill="#FFFFFF"></path>
    </g>
</svg>