<?xml version="1.0" encoding="UTF-8"?>
<svg width="36px" height="36px" viewBox="0 0 36 36" version="1.1" xmlns="http://www.w3.org/2000/svg" xmlns:xlink="http://www.w3.org/1999/xlink">
    <title>icon-apple</title>
    <g id="icon-apple" stroke="none" stroke-width="1" fill="none" fill-rule="evenodd">
        <path d="M18.2478086,13.0180664 C18.7793841,12.9731445 19.176194,12.9095052 19.4382383,12.8271484 C19.8500221,12.6848958 20.2655495,12.4078776 20.6848203,11.9960938 C21.171474,11.5094401 21.5271055,10.9816081 21.7517148,10.4125977 C21.9763242,9.84358724 22.0886289,9.3194987 22.0886289,8.84033203 C22.0886289,8.76546224 22.0848854,8.69059245 22.0773984,8.61572266 C22.0699115,8.54085286 22.051194,8.4547526 22.0212461,8.35742188 C20.6810768,8.66438802 19.7208717,9.23339844 19.1406309,10.0644531 C18.56039,10.8955078 18.2627826,11.8800456 18.2478086,13.0180664 Z M15.5300352,27.527832 C15.9193581,27.527832 16.4266009,27.3986816 17.0517637,27.1403809 C17.6769264,26.8820801 18.2253477,26.7529297 18.6970273,26.7529297 C19.168707,26.7529297 19.7470762,26.8764648 20.4321348,27.1235352 C21.1171934,27.3706055 21.6543841,27.4941406 22.043707,27.4941406 C23.0245013,27.4941406 24.0127826,26.7416992 25.0085508,25.2368164 C25.6674049,24.2335612 26.1390846,23.2714844 26.4235898,22.3505859 C25.7422747,22.1484375 25.1358294,21.6655273 24.6042539,20.9018555 C24.0726784,20.1381836 23.8068906,19.2809245 23.8068906,18.3300781 C23.8068906,17.4615885 24.0577044,16.6679688 24.559332,15.9492188 C24.8363503,15.5524089 25.2743385,15.0994466 25.8732969,14.590332 C25.476487,14.1036784 25.0759336,13.718099 24.6716367,13.4335938 C23.9528867,12.9394531 23.1330625,12.6923828 22.2121641,12.6923828 C21.6506406,12.6923828 20.988043,12.8234049 20.2243711,13.0854492 C19.4606992,13.3474935 18.9104063,13.4785156 18.5734922,13.4785156 C18.3114479,13.4785156 17.7817441,13.3624674 16.9843809,13.1303711 C16.1870176,12.8982747 15.5075742,12.7822266 14.9460508,12.7822266 C13.6283424,12.7822266 12.5371152,13.336263 11.6723691,14.4443359 C10.807623,15.5524089 10.37525,16.9861654 10.37525,18.7456055 C10.37525,20.6398112 10.9405169,22.5714518 12.0710508,24.5405273 C13.2015846,26.5320638 14.3545794,27.527832 15.5300352,27.527832 Z" id="" fill="#FFFFFF" fill-rule="nonzero"></path>
    </g>
</svg>